<svg data-v-fde0c5aa="" xmlns="http://www.w3.org/2000/svg" viewBox="0 0 300 300" class="font"><!----><defs data-v-fde0c5aa=""><!----></defs><rect data-v-fde0c5aa="" fill="#111F51" x="0" y="0" width="300px" height="300px" class="logo-background-square"></rect><defs data-v-fde0c5aa=""><!----></defs><g data-v-fde0c5aa="" id="67460345-bc1b-426b-86b5-05ec3d87f490" fill="#19CEDA" transform="matrix(1.2795905855406349,0,0,1.2795905855406349,38.65642994619797,139.03390846226048)"><path d="M5.15 3.42L2.60 3.42L2.60 7.66L3.13 7.66L3.13 7.66Q3.42 7.66 3.70 7.55L3.70 7.55L3.70 7.55Q3.99 7.44 4.22 7.22L4.22 7.22L4.22 7.22Q4.45 7.01 4.61 6.68L4.61 6.68L4.61 6.68Q4.76 6.36 4.80 5.92L4.80 5.92L5.09 5.92L5.09 9.63L4.80 9.63L4.80 9.63Q4.74 9.22 4.58 8.92L4.58 8.92L4.58 8.92Q4.42 8.62 4.18 8.42L4.18 8.42L4.18 8.42Q3.95 8.22 3.68 8.11L3.68 8.11L3.68 8.11Q3.40 8.01 3.13 8.00L3.13 8.00L2.60 8.00L2.60 12.47L4.52 12.47L4.52 12.47Q5.09 12.47 5.54 12.24L5.54 12.24L5.54 12.24Q6.00 12.01 6.31 11.63L6.31 11.63L6.31 11.63Q6.63 11.25 6.80 10.75L6.80 10.75L6.80 10.75Q6.97 10.25 6.97 9.72L6.97 9.72L6.97 9.04L7.36 9.04L7.36 11.29L7.36 11.29Q7.36 11.60 7.24 11.88L7.24 11.88L7.24 11.88Q7.12 12.15 6.91 12.36L6.91 12.36L6.91 12.36Q6.70 12.56 6.42 12.68L6.42 12.68L6.42 12.68Q6.14 12.80 5.82 12.80L5.82 12.80L1.05 12.80L1.05 3.97L1.05 3.97Q1.05 3.64 1.06 3.46L1.06 3.46L1.06 3.46Q1.07 3.27 1.15 3.19L1.15 3.19L1.15 3.19Q1.22 3.11 1.38 3.10L1.38 3.10L1.38 3.10Q1.54 3.08 1.83 3.08L1.83 3.08L6.28 3.08L6.28 3.08Q6.59 3.08 6.75 3.10L6.75 3.10L6.75 3.10Q6.91 3.12 6.99 3.21L6.99 3.21L6.99 3.21Q7.06 3.30 7.07 3.48L7.07 3.48L7.07 3.48Q7.08 3.66 7.08 3.97L7.08 3.97L7.08 5.91L6.71 5.91L6.71 4.94L6.71 4.94Q6.71 4.51 6.62 4.22L6.62 4.22L6.62 4.22Q6.54 3.93 6.36 3.75L6.36 3.75L6.36 3.75Q6.17 3.57 5.88 3.49L5.88 3.49L5.88 3.49Q5.58 3.42 5.15 3.42L5.15 3.42ZM8.72 13.51L9.13 13.51L9.13 13.51Q9.15 13.83 9.26 14.05L9.26 14.05L9.26 14.05Q9.36 14.27 9.54 14.41L9.54 14.41L9.54 14.41Q9.73 14.55 10.01 14.61L10.01 14.61L10.01 14.61Q10.29 14.67 10.67 14.67L10.67 14.67L11.30 14.67L11.30 14.67Q12.02 14.67 12.42 14.44L12.42 14.44L12.42 14.44Q12.81 14.21 12.81 13.62L12.81 13.62L12.81 12.80L10.17 12.80L10.17 12.80Q9.86 12.80 9.60 12.68L9.60 12.68L9.60 12.68Q9.34 12.56 9.14 12.35L9.14 12.35L9.14 12.35Q8.95 12.14 8.84 11.87L8.84 11.87L8.84 11.87Q8.72 11.59 8.72 11.29L8.72 11.29L8.72 6.79L8.72 6.79Q8.72 6.48 8.83 6.20L8.83 6.20L8.83 6.20Q8.93 5.93 9.13 5.72L9.13 5.72L9.13 5.72Q9.32 5.51 9.58 5.39L9.58 5.39L9.58 5.39Q9.85 5.27 10.17 5.27L10.17 5.27L14.38 5.27L14.38 13.62L14.38 13.62Q14.38 14.01 14.27 14.27L14.27 14.27L14.27 14.27Q14.17 14.54 13.97 14.70L13.97 14.70L13.97 14.70Q13.77 14.87 13.48 14.94L13.48 14.94L13.48 14.94Q13.19 15.01 12.81 15.01L12.81 15.01L10.17 15.01L10.17 15.01Q9.69 15.01 9.40 14.86L9.40 14.86L9.40 14.86Q9.12 14.70 8.97 14.48L8.97 14.48L8.97 14.48Q8.82 14.25 8.77 13.99L8.77 13.99L8.77 13.99Q8.72 13.73 8.72 13.51L8.72 13.51ZM11.53 12.46L11.53 12.46L11.53 12.46Q12.24 12.46 12.52 12.09L12.52 12.09L12.52 12.09Q12.81 11.73 12.81 10.96L12.81 10.96L12.81 5.61L11.80 5.61L11.80 5.61Q11.37 5.61 11.07 5.69L11.07 5.69L11.07 5.69Q10.77 5.77 10.59 5.95L10.59 5.95L10.59 5.95Q10.40 6.13 10.32 6.42L10.32 6.42L10.32 6.42Q10.24 6.71 10.24 7.14L10.24 7.14L10.24 10.96L10.24 10.96Q10.24 11.73 10.53 12.09L10.53 12.09L10.53 12.09Q10.83 12.46 11.53 12.46ZM16.11 13.51L16.51 13.51L16.51 13.51Q16.54 13.83 16.64 14.05L16.64 14.05L16.64 14.05Q16.74 14.27 16.93 14.41L16.93 14.41L16.93 14.41Q17.11 14.55 17.39 14.61L17.39 14.61L17.39 14.61Q17.67 14.67 18.05 14.67L18.05 14.67L18.68 14.67L18.68 14.67Q19.41 14.67 19.80 14.44L19.80 14.44L19.80 14.44Q20.19 14.21 20.19 13.62L20.19 13.62L20.19 12.80L17.55 12.80L17.55 12.80Q17.25 12.80 16.98 12.68L16.98 12.68L16.98 12.68Q16.72 12.56 16.53 12.35L16.53 12.35L16.53 12.35Q16.33 12.14 16.22 11.87L16.22 11.87L16.22 11.87Q16.11 11.59 16.11 11.29L16.11 11.29L16.11 6.79L16.11 6.79Q16.11 6.48 16.21 6.20L16.21 6.20L16.21 6.20Q16.32 5.93 16.51 5.72L16.51 5.72L16.51 5.72Q16.70 5.51 16.97 5.39L16.97 5.39L16.97 5.39Q17.23 5.27 17.55 5.27L17.55 5.27L21.76 5.27L21.76 13.62L21.76 13.62Q21.76 14.01 21.66 14.27L21.66 14.27L21.66 14.27Q21.55 14.54 21.36 14.70L21.36 14.70L21.36 14.70Q21.16 14.87 20.86 14.94L20.86 14.94L20.86 14.94Q20.57 15.01 20.19 15.01L20.19 15.01L17.55 15.01L17.55 15.01Q17.07 15.01 16.79 14.86L16.79 14.86L16.79 14.86Q16.50 14.70 16.35 14.48L16.35 14.48L16.35 14.48Q16.20 14.25 16.15 13.99L16.15 13.99L16.15 13.99Q16.11 13.73 16.11 13.51L16.11 13.51ZM18.92 12.46L18.92 12.46L18.92 12.46Q19.62 12.46 19.91 12.09L19.91 12.09L19.91 12.09Q20.19 11.73 20.19 10.96L20.19 10.96L20.19 5.61L19.18 5.61L19.18 5.61Q18.75 5.61 18.45 5.69L18.45 5.69L18.45 5.69Q18.16 5.77 17.97 5.95L17.97 5.95L17.97 5.95Q17.79 6.13 17.71 6.42L17.71 6.42L17.71 6.42Q17.62 6.71 17.62 7.14L17.62 7.14L17.62 10.96L17.62 10.96Q17.62 11.73 17.92 12.09L17.92 12.09L17.92 12.09Q18.21 12.46 18.92 12.46ZM25.03 2.96L25.03 2.96L25.03 5.27L27.58 5.27L27.58 5.27Q27.89 5.27 28.17 5.39L28.17 5.39L28.17 5.39Q28.45 5.51 28.66 5.71L28.66 5.71L28.66 5.71Q28.88 5.92 29.00 6.20L29.00 6.20L29.00 6.20Q29.12 6.48 29.12 6.79L29.12 6.79L29.12 11.21L29.12 11.21Q29.12 11.66 29.05 11.97L29.05 11.97L29.05 11.97Q28.98 12.27 28.80 12.46L28.80 12.46L28.80 12.46Q28.63 12.64 28.33 12.72L28.33 12.72L28.33 12.72Q28.03 12.80 27.58 12.80L27.58 12.80L27.58 7.13L27.58 7.13Q27.58 6.35 27.29 5.98L27.29 5.98L27.29 5.98Q27.00 5.62 26.29 5.62L26.29 5.62L25.03 5.62L25.03 11.21L25.03 11.21Q25.03 11.66 24.96 11.97L24.96 11.97L24.96 11.97Q24.89 12.27 24.72 12.46L24.72 12.46L24.72 12.46Q24.54 12.64 24.24 12.72L24.24 12.72L24.24 12.72Q23.94 12.80 23.49 12.80L23.49 12.80L23.49 4.60L23.49 4.60Q23.49 4.14 23.57 3.82L23.57 3.82L23.57 3.82Q23.65 3.51 23.83 3.32L23.83 3.32L23.83 3.32Q24.01 3.12 24.31 3.04L24.31 3.04L24.31 3.04Q24.60 2.96 25.03 2.96ZM33.66 5.63L33.66 5.63L33.66 5.63Q32.95 5.63 32.66 5.98L32.66 5.98L32.66 5.98Q32.36 6.34 32.36 7.12L32.36 7.12L32.36 7.77L34.96 7.77L34.96 7.12L34.96 7.12Q34.96 6.73 34.89 6.45L34.89 6.45L34.89 6.45Q34.82 6.17 34.67 5.98L34.67 5.98L34.67 5.98Q34.51 5.80 34.27 5.71L34.27 5.71L34.27 5.71Q34.02 5.63 33.66 5.63ZM36.48 8.11L32.36 8.11L32.36 10.95L32.36 10.95Q32.36 11.38 32.44 11.67L32.44 11.67L32.44 11.67Q32.53 11.96 32.71 12.14L32.71 12.14L32.71 12.14Q32.89 12.32 33.19 12.40L33.19 12.40L33.19 12.40Q33.48 12.48 33.91 12.48L33.91 12.48L33.99 12.48L33.99 12.48Q34.42 12.48 34.71 12.40L34.71 12.40L34.71 12.40Q35.01 12.32 35.19 12.14L35.19 12.14L35.19 12.14Q35.38 11.96 35.45 11.67L35.45 11.67L35.45 11.67Q35.53 11.38 35.53 10.95L35.53 10.95L35.53 10.30L35.92 10.30L35.92 11.29L35.92 11.29Q35.92 11.51 35.88 11.78L35.88 11.78L35.88 11.78Q35.83 12.04 35.67 12.27L35.67 12.27L35.67 12.27Q35.51 12.50 35.21 12.65L35.21 12.65L35.21 12.65Q34.91 12.80 34.41 12.80L34.41 12.80L32.36 12.80L32.36 12.80Q32.09 12.80 31.82 12.67L31.82 12.67L31.82 12.67Q31.55 12.54 31.33 12.33L31.33 12.33L31.33 12.33Q31.12 12.11 30.98 11.84L30.98 11.84L30.98 11.84Q30.85 11.57 30.85 11.29L30.85 11.29L30.85 6.79L30.85 6.79Q30.85 6.49 30.97 6.22L30.97 6.22L30.97 6.22Q31.10 5.95 31.31 5.75L31.31 5.75L31.31 5.75Q31.52 5.54 31.79 5.42L31.79 5.42L31.79 5.42Q32.06 5.29 32.36 5.27L32.36 5.27L34.96 5.27L34.96 5.27Q35.27 5.27 35.55 5.39L35.55 5.39L35.55 5.39Q35.83 5.51 36.03 5.72L36.03 5.72L36.03 5.72Q36.24 5.93 36.36 6.20L36.36 6.20L36.36 6.20Q36.48 6.48 36.48 6.79L36.48 6.79L36.48 8.11ZM39.35 7.79L41.96 7.79L41.96 7.14L41.96 7.14Q41.96 6.32 41.57 5.97L41.57 5.97L41.57 5.97Q41.18 5.63 40.37 5.63L40.37 5.63L40.37 5.63Q39.96 5.63 39.68 5.70L39.68 5.70L39.68 5.70Q39.40 5.78 39.22 5.96L39.22 5.96L39.22 5.96Q39.04 6.15 38.96 6.43L38.96 6.43L38.96 6.43Q38.88 6.72 38.88 7.14L38.88 7.14L38.88 7.30L38.49 7.30L38.49 6.18L38.49 6.18Q38.49 5.87 38.51 5.69L38.51 5.69L38.51 5.69Q38.53 5.51 38.61 5.42L38.61 5.42L38.61 5.42Q38.69 5.33 38.85 5.31L38.85 5.31L38.85 5.31Q39.01 5.28 39.30 5.28L39.30 5.28L41.96 5.28L41.96 5.28Q42.24 5.28 42.51 5.42L42.51 5.42L42.51 5.42Q42.78 5.55 42.99 5.77L42.99 5.77L42.99 5.77Q43.21 5.98 43.34 6.25L43.34 6.25L43.34 6.25Q43.47 6.53 43.47 6.81L43.47 6.81L43.47 11.27L43.47 11.27Q43.47 11.58 43.35 11.85L43.35 11.85L43.35 11.85Q43.22 12.12 43.01 12.33L43.01 12.33L43.01 12.33Q42.80 12.53 42.53 12.66L42.53 12.66L42.53 12.66Q42.25 12.78 41.96 12.80L41.96 12.80L39.35 12.80L39.35 12.80Q39.04 12.80 38.77 12.68L38.77 12.68L38.77 12.68Q38.49 12.56 38.29 12.36L38.29 12.36L38.29 12.36Q38.08 12.15 37.96 11.87L37.96 11.87L37.96 11.87Q37.84 11.59 37.84 11.27L37.84 11.27L37.84 9.31L37.84 9.31Q37.84 9.00 37.96 8.72L37.96 8.72L37.96 8.72Q38.08 8.44 38.29 8.23L38.29 8.23L38.29 8.23Q38.49 8.03 38.77 7.91L38.77 7.91L38.77 7.91Q39.04 7.79 39.35 7.79L39.35 7.79ZM41.96 10.94L41.96 8.13L40.91 8.13L40.91 8.13Q40.48 8.13 40.19 8.21L40.19 8.21L40.19 8.21Q39.89 8.29 39.70 8.46L39.70 8.46L39.70 8.46Q39.52 8.64 39.44 8.93L39.44 8.93L39.44 8.93Q39.35 9.22 39.35 9.64L39.35 9.64L39.35 10.94L39.35 10.94Q39.35 11.33 39.42 11.60L39.42 11.60L39.42 11.60Q39.49 11.87 39.64 12.06L39.64 12.06L39.64 12.06Q39.79 12.24 40.03 12.33L40.03 12.33L40.03 12.33Q40.28 12.43 40.63 12.46L40.63 12.46L40.63 12.46Q41.00 12.43 41.25 12.34L41.25 12.34L41.25 12.34Q41.50 12.25 41.66 12.07L41.66 12.07L41.66 12.07Q41.82 11.89 41.89 11.61L41.89 11.61L41.89 11.61Q41.96 11.33 41.96 10.94L41.96 10.94ZM49.29 10.94L49.29 5.61L48.26 5.61L48.26 5.61Q47.83 5.61 47.54 5.69L47.54 5.69L47.54 5.69Q47.24 5.76 47.06 5.94L47.06 5.94L47.06 5.94Q46.88 6.12 46.80 6.41L46.80 6.41L46.80 6.41Q46.72 6.70 46.72 7.12L46.72 7.12L46.72 10.94L46.72 10.94Q46.72 11.33 46.79 11.61L46.79 11.61L46.79 11.61Q46.86 11.89 47.01 12.08L47.01 12.08L47.01 12.08Q47.16 12.27 47.41 12.36L47.41 12.36L47.41 12.36Q47.65 12.46 48.01 12.46L48.01 12.46L48.01 12.46Q48.71 12.46 49.00 12.09L49.00 12.09L49.00 12.09Q49.29 11.72 49.29 10.94L49.29 10.94ZM49.29 12.80L46.72 12.80L46.72 12.80Q46.42 12.80 46.15 12.70L46.15 12.70L46.15 12.70Q45.88 12.59 45.66 12.41L45.66 12.41L45.66 12.41Q45.45 12.22 45.33 11.97L45.33 11.97L45.33 11.97Q45.20 11.71 45.20 11.41L45.20 11.41L45.20 6.79L45.20 6.79Q45.20 6.48 45.32 6.20L45.32 6.20L45.32 6.20Q45.44 5.92 45.65 5.71L45.65 5.71L45.65 5.71Q45.86 5.51 46.13 5.39L46.13 5.39L46.13 5.39Q46.41 5.27 46.72 5.27L46.72 5.27L49.29 5.27L49.29 4.58L49.29 4.58Q49.29 4.12 49.37 3.81L49.37 3.81L49.37 3.81Q49.45 3.49 49.63 3.30L49.63 3.30L49.63 3.30Q49.81 3.11 50.11 3.03L50.11 3.03L50.11 3.03Q50.41 2.95 50.84 2.95L50.84 2.95L50.84 11.41L50.84 11.41Q50.84 11.79 50.74 12.05L50.74 12.05L50.74 12.05Q50.63 12.31 50.44 12.48L50.44 12.48L50.44 12.48Q50.24 12.64 49.95 12.72L49.95 12.72L49.95 12.72Q49.66 12.80 49.29 12.80L49.29 12.80ZM53.95 2.34L53.95 2.34L53.95 2.34Q54.13 2.54 54.13 2.78L54.13 2.78L54.13 2.78Q54.13 2.98 54.03 3.23L54.03 3.23L54.03 3.23Q53.94 3.47 53.83 3.78L53.83 3.78L53.83 3.78Q53.72 4.08 53.64 4.45L53.64 4.45L53.64 4.45Q53.56 4.83 53.58 5.29L53.58 5.29L53.42 5.29L53.42 5.29Q53.44 4.83 53.36 4.45L53.36 4.45L53.36 4.45Q53.27 4.08 53.16 3.78L53.16 3.78L53.16 3.78Q53.05 3.48 52.96 3.23L52.96 3.23L52.96 3.23Q52.86 2.99 52.86 2.78L52.86 2.78L52.86 2.78Q52.86 2.67 52.91 2.55L52.91 2.55L52.91 2.55Q52.96 2.43 53.05 2.34L53.05 2.34L53.05 2.34Q53.14 2.24 53.25 2.18L53.25 2.18L53.25 2.18Q53.36 2.13 53.50 2.13L53.50 2.13L53.50 2.13Q53.62 2.13 53.74 2.18L53.74 2.18L53.74 2.18Q53.85 2.23 53.95 2.34ZM57.31 5.27L57.31 5.27L59.73 5.27L59.73 5.27Q60.23 5.27 60.51 5.42L60.51 5.42L60.51 5.42Q60.79 5.58 60.92 5.81L60.92 5.81L60.92 5.81Q61.04 6.04 61.07 6.30L61.07 6.30L61.07 6.30Q61.09 6.56 61.09 6.79L61.09 6.79L61.09 7.29L60.68 7.29L60.68 7.29Q60.62 6.92 60.47 6.62L60.47 6.62L60.47 6.62Q60.33 6.31 60.09 6.09L60.09 6.09L60.09 6.09Q59.86 5.87 59.54 5.74L59.54 5.74L59.54 5.74Q59.22 5.61 58.83 5.61L58.83 5.61L58.44 5.61L58.44 5.61Q58.02 5.61 57.74 5.68L57.74 5.68L57.74 5.68Q57.46 5.75 57.29 5.91L57.29 5.91L57.29 5.91Q57.12 6.06 57.05 6.32L57.05 6.32L57.05 6.32Q56.98 6.58 56.98 6.96L56.98 6.96L56.98 6.96Q56.98 7.25 57.15 7.46L57.15 7.46L57.15 7.46Q57.31 7.67 57.59 7.83L57.59 7.83L57.59 7.83Q57.87 7.99 58.23 8.11L58.23 8.11L58.23 8.11Q58.59 8.24 58.97 8.34L58.97 8.34L58.97 8.34Q59.35 8.44 59.72 8.54L59.72 8.54L59.72 8.54Q60.09 8.64 60.40 8.76L60.40 8.76L60.40 8.76Q60.61 8.84 60.80 8.98L60.80 8.98L60.80 8.98Q60.99 9.12 61.13 9.31L61.13 9.31L61.13 9.31Q61.26 9.50 61.34 9.72L61.34 9.72L61.34 9.72Q61.42 9.95 61.42 10.19L61.42 10.19L61.42 11.28L61.42 11.28Q61.42 11.59 61.30 11.87L61.30 11.87L61.30 11.87Q61.18 12.15 60.97 12.36L60.97 12.36L60.97 12.36Q60.76 12.56 60.48 12.68L60.48 12.68L60.48 12.68Q60.20 12.80 59.89 12.80L59.89 12.80L57.72 12.80L57.72 12.80Q57.21 12.80 56.84 12.71L56.84 12.71L56.84 12.71Q56.47 12.61 56.24 12.39L56.24 12.39L56.24 12.39Q56.01 12.17 55.90 11.82L55.90 11.82L55.90 11.82Q55.79 11.46 55.79 10.95L55.79 10.95L55.79 10.29L56.18 10.29L56.18 10.95L56.18 10.95Q56.18 11.38 56.26 11.67L56.26 11.67L56.26 11.67Q56.34 11.96 56.52 12.13L56.52 12.13L56.52 12.13Q56.70 12.31 57.00 12.39L57.00 12.39L57.00 12.39Q57.29 12.46 57.72 12.46L57.72 12.46L58.67 12.46L58.67 12.46Q59.10 12.46 59.40 12.41L59.40 12.41L59.40 12.41Q59.69 12.36 59.87 12.21L59.87 12.21L59.87 12.21Q60.05 12.06 60.13 11.80L60.13 11.80L60.13 11.80Q60.21 11.54 60.21 11.12L60.21 11.12L60.21 10.94L60.21 10.94Q60.21 10.60 60.02 10.39L60.02 10.39L60.02 10.39Q59.83 10.17 59.52 10.02L59.52 10.02L59.52 10.02Q59.21 9.88 58.81 9.78L58.81 9.78L58.81 9.78Q58.41 9.68 58.00 9.57L58.00 9.57L58.00 9.57Q57.59 9.45 57.19 9.31L57.19 9.31L57.19 9.31Q56.79 9.17 56.48 8.93L56.48 8.93L56.48 8.93Q56.17 8.70 55.98 8.35L55.98 8.35L55.98 8.35Q55.79 8.00 55.79 7.49L55.79 7.49L55.79 6.79L55.79 6.79Q55.79 6.47 55.91 6.20L55.91 6.20L55.91 6.20Q56.03 5.92 56.23 5.71L56.23 5.71L56.23 5.71Q56.44 5.51 56.71 5.39L56.71 5.39L56.71 5.39Q56.99 5.27 57.31 5.27ZM67.63 3.08L71.37 3.08L71.37 3.08Q71.69 3.08 71.97 3.20L71.97 3.20L71.97 3.20Q72.24 3.32 72.45 3.53L72.45 3.53L72.45 3.53Q72.66 3.74 72.78 4.02L72.78 4.02L72.78 4.02Q72.90 4.29 72.90 4.60L72.90 4.60L72.90 6.41L72.90 6.41Q72.90 6.79 72.73 7.12L72.73 7.12L72.73 7.12Q72.56 7.44 72.27 7.65L72.27 7.65L72.27 7.65Q72.52 7.71 72.73 7.85L72.73 7.85L72.73 7.85Q72.94 7.99 73.09 8.19L73.09 8.19L73.09 8.19Q73.24 8.38 73.33 8.62L73.33 8.62L73.33 8.62Q73.41 8.86 73.41 9.13L73.41 9.13L73.41 11.27L73.41 11.27Q73.41 11.59 73.29 11.86L73.29 11.86L73.29 11.86Q73.17 12.14 72.97 12.35L72.97 12.35L72.97 12.35Q72.76 12.56 72.48 12.68L72.48 12.68L72.48 12.68Q72.21 12.80 71.89 12.80L71.89 12.80L66.83 12.80L66.83 3.97L66.83 3.97Q66.83 3.66 66.84 3.48L66.84 3.48L66.84 3.48Q66.85 3.30 66.92 3.21L66.92 3.21L66.92 3.21Q67.00 3.12 67.16 3.10L67.16 3.10L67.16 3.10Q67.32 3.08 67.63 3.08L67.63 3.08ZM69.82 3.45L68.37 3.45L68.37 7.61L69.82 7.61L69.82 7.61Q70.25 7.61 70.55 7.53L70.55 7.53L70.55 7.53Q70.85 7.45 71.03 7.27L71.03 7.27L71.03 7.27Q71.22 7.10 71.30 6.80L71.30 6.80L71.30 6.80Q71.37 6.51 71.37 6.08L71.37 6.08L71.37 4.94L71.37 4.94Q71.37 4.51 71.30 4.22L71.30 4.22L71.30 4.22Q71.22 3.94 71.03 3.76L71.03 3.76L71.03 3.76Q70.85 3.59 70.55 3.52L70.55 3.52L70.55 3.52Q70.25 3.45 69.82 3.45L69.82 3.45ZM70.35 7.94L68.37 7.94L68.37 12.46L70.35 12.46L70.35 12.46Q70.78 12.46 71.07 12.38L71.07 12.38L71.07 12.38Q71.37 12.30 71.55 12.13L71.55 12.13L71.55 12.13Q71.74 11.95 71.81 11.66L71.81 11.66L71.81 11.66Q71.89 11.38 71.89 10.94L71.89 10.94L71.89 9.45L71.89 9.45Q71.89 9.02 71.81 8.74L71.81 8.74L71.81 8.74Q71.74 8.45 71.55 8.27L71.55 8.27L71.55 8.27Q71.37 8.09 71.07 8.02L71.07 8.02L71.07 8.02Q70.78 7.94 70.35 7.94L70.35 7.94ZM76.45 5.27L78.74 5.27L78.74 5.27Q79.06 5.27 79.37 5.37L79.37 5.37L79.37 5.37Q79.67 5.48 79.90 5.67L79.90 5.67L79.90 5.67Q80.12 5.87 80.26 6.15L80.26 6.15L80.26 6.15Q80.40 6.44 80.40 6.81L80.40 6.81L80.40 11.27L80.40 11.27Q80.40 11.64 80.26 11.93L80.26 11.93L80.26 11.93Q80.12 12.21 79.90 12.40L79.90 12.40L79.90 12.40Q79.67 12.60 79.37 12.70L79.37 12.70L79.37 12.70Q79.06 12.80 78.74 12.80L78.74 12.80L76.45 12.80L76.45 12.80Q76.12 12.80 75.82 12.70L75.82 12.70L75.82 12.70Q75.52 12.60 75.29 12.40L75.29 12.40L75.29 12.40Q75.06 12.21 74.92 11.93L74.92 11.93L74.92 11.93Q74.78 11.64 74.78 11.27L74.78 11.27L74.78 6.81L74.78 6.81Q74.78 6.44 74.92 6.15L74.92 6.15L74.92 6.15Q75.06 5.87 75.29 5.67L75.29 5.67L75.29 5.67Q75.52 5.48 75.82 5.37L75.82 5.37L75.82 5.37Q76.12 5.27 76.45 5.27L76.45 5.27ZM76.30 7.13L76.30 10.94L76.30 10.94Q76.30 11.33 76.36 11.62L76.36 11.62L76.36 11.62Q76.43 11.91 76.59 12.09L76.59 12.09L76.59 12.09Q76.74 12.28 76.99 12.37L76.99 12.37L76.99 12.37Q77.23 12.46 77.59 12.46L77.59 12.46L77.59 12.46Q77.94 12.46 78.19 12.37L78.19 12.37L78.19 12.37Q78.44 12.28 78.60 12.09L78.60 12.09L78.60 12.09Q78.75 11.91 78.82 11.62L78.82 11.62L78.82 11.62Q78.89 11.33 78.89 10.94L78.89 10.94L78.89 7.13L78.89 7.13Q78.89 6.74 78.82 6.45L78.82 6.45L78.82 6.45Q78.75 6.17 78.60 5.98L78.60 5.98L78.60 5.98Q78.44 5.80 78.19 5.71L78.19 5.71L78.19 5.71Q77.94 5.62 77.59 5.62L77.59 5.62L77.59 5.62Q77.23 5.62 76.99 5.71L76.99 5.71L76.99 5.71Q76.74 5.80 76.59 5.98L76.59 5.98L76.59 5.98Q76.43 6.17 76.36 6.45L76.36 6.45L76.36 6.45Q76.30 6.74 76.30 7.13L76.30 7.13ZM83.64 7.79L86.24 7.79L86.24 7.14L86.24 7.14Q86.24 6.32 85.85 5.97L85.85 5.97L85.85 5.97Q85.46 5.63 84.65 5.63L84.65 5.63L84.65 5.63Q84.25 5.63 83.96 5.70L83.96 5.70L83.96 5.70Q83.68 5.78 83.50 5.96L83.50 5.96L83.50 5.96Q83.32 6.15 83.24 6.43L83.24 6.43L83.24 6.43Q83.17 6.72 83.17 7.14L83.17 7.14L83.17 7.30L82.77 7.30L82.77 6.18L82.77 6.18Q82.77 5.87 82.79 5.69L82.79 5.69L82.79 5.69Q82.81 5.51 82.89 5.42L82.89 5.42L82.89 5.42Q82.97 5.33 83.14 5.31L83.14 5.31L83.14 5.31Q83.30 5.28 83.58 5.28L83.58 5.28L86.24 5.28L86.24 5.28Q86.52 5.28 86.79 5.42L86.79 5.42L86.79 5.42Q87.06 5.55 87.28 5.77L87.28 5.77L87.28 5.77Q87.49 5.98 87.62 6.25L87.62 6.25L87.62 6.25Q87.75 6.53 87.75 6.81L87.75 6.81L87.75 11.27L87.75 11.27Q87.75 11.58 87.63 11.85L87.63 11.85L87.63 11.85Q87.51 12.12 87.29 12.33L87.29 12.33L87.29 12.33Q87.08 12.53 86.81 12.66L86.81 12.66L86.81 12.66Q86.54 12.78 86.24 12.80L86.24 12.80L83.64 12.80L83.64 12.80Q83.32 12.80 83.05 12.68L83.05 12.68L83.05 12.68Q82.78 12.56 82.57 12.36L82.57 12.36L82.57 12.36Q82.37 12.15 82.25 11.87L82.25 11.87L82.25 11.87Q82.13 11.59 82.13 11.27L82.13 11.27L82.13 9.31L82.13 9.31Q82.13 9.00 82.25 8.72L82.25 8.72L82.25 8.72Q82.37 8.44 82.57 8.23L82.57 8.23L82.57 8.23Q82.78 8.03 83.05 7.91L83.05 7.91L83.05 7.91Q83.32 7.79 83.64 7.79L83.64 7.79ZM86.24 10.94L86.24 8.13L85.20 8.13L85.20 8.13Q84.77 8.13 84.47 8.21L84.47 8.21L84.47 8.21Q84.17 8.29 83.99 8.46L83.99 8.46L83.99 8.46Q83.80 8.64 83.72 8.93L83.72 8.93L83.72 8.93Q83.64 9.22 83.64 9.64L83.64 9.64L83.64 10.94L83.64 10.94Q83.64 11.33 83.71 11.60L83.71 11.60L83.71 11.60Q83.77 11.87 83.92 12.06L83.92 12.06L83.92 12.06Q84.08 12.24 84.32 12.33L84.32 12.33L84.32 12.33Q84.56 12.43 84.91 12.46L84.91 12.46L84.91 12.46Q85.28 12.43 85.53 12.34L85.53 12.34L85.53 12.34Q85.78 12.25 85.94 12.07L85.94 12.07L85.94 12.07Q86.11 11.89 86.17 11.61L86.17 11.61L86.17 11.61Q86.24 11.33 86.24 10.94L86.24 10.94ZM93.61 7.30L93.19 7.30L93.19 7.30Q93.15 7.01 93.04 6.72L93.04 6.72L93.04 6.72Q92.93 6.43 92.77 6.20L92.77 6.20L92.77 6.20Q92.61 5.97 92.38 5.83L92.38 5.83L92.38 5.83Q92.16 5.69 91.87 5.69L91.87 5.69L91.87 5.69Q91.46 5.69 91.25 5.99L91.25 5.99L91.25 5.99Q91.03 6.28 91.03 6.73L91.03 6.73L91.03 11.21L91.03 11.21Q91.03 11.66 90.96 11.96L90.96 11.96L90.96 11.96Q90.88 12.26 90.71 12.45L90.71 12.45L90.71 12.45Q90.54 12.64 90.23 12.72L90.23 12.72L90.23 12.72Q89.93 12.80 89.48 12.80L89.48 12.80L89.48 6.90L89.48 6.90Q89.48 6.45 89.56 6.13L89.56 6.13L89.56 6.13Q89.65 5.82 89.83 5.63L89.83 5.63L89.83 5.63Q90.01 5.43 90.30 5.35L90.30 5.35L90.30 5.35Q90.60 5.27 91.03 5.27L91.03 5.27L92.47 5.27L92.47 5.27Q92.83 5.27 93.04 5.39L93.04 5.39L93.04 5.39Q93.26 5.50 93.39 5.70L93.39 5.70L93.39 5.70Q93.52 5.90 93.56 6.17L93.56 6.17L93.56 6.17Q93.60 6.43 93.61 6.73L93.61 6.73L93.61 7.30ZM98.73 10.94L98.73 5.61L97.70 5.61L97.70 5.61Q97.27 5.61 96.97 5.69L96.97 5.69L96.97 5.69Q96.68 5.76 96.50 5.94L96.50 5.94L96.50 5.94Q96.32 6.12 96.24 6.41L96.24 6.41L96.24 6.41Q96.16 6.70 96.16 7.12L96.16 7.12L96.16 10.94L96.16 10.94Q96.16 11.33 96.23 11.61L96.23 11.61L96.23 11.61Q96.30 11.89 96.45 12.08L96.45 12.08L96.45 12.08Q96.60 12.27 96.84 12.36L96.84 12.36L96.84 12.36Q97.09 12.46 97.45 12.46L97.45 12.46L97.45 12.46Q98.15 12.46 98.44 12.09L98.44 12.09L98.44 12.09Q98.73 11.72 98.73 10.94L98.73 10.94ZM98.72 12.80L96.16 12.80L96.16 12.80Q95.86 12.80 95.59 12.70L95.59 12.70L95.59 12.70Q95.31 12.59 95.10 12.41L95.10 12.41L95.10 12.41Q94.89 12.22 94.76 11.97L94.76 11.97L94.76 11.97Q94.64 11.71 94.64 11.41L94.64 11.41L94.64 6.79L94.64 6.79Q94.64 6.48 94.76 6.20L94.76 6.20L94.76 6.20Q94.88 5.92 95.08 5.71L95.08 5.71L95.08 5.71Q95.29 5.51 95.57 5.39L95.57 5.39L95.57 5.39Q95.85 5.27 96.16 5.27L96.16 5.27L98.73 5.27L98.73 4.58L98.73 4.58Q98.73 4.12 98.81 3.81L98.81 3.81L98.81 3.81Q98.89 3.49 99.07 3.30L99.07 3.30L99.07 3.30Q99.25 3.11 99.55 3.03L99.55 3.03L99.55 3.03Q99.85 2.95 100.28 2.95L100.28 2.95L100.28 11.41L100.28 11.41Q100.28 11.79 100.17 12.05L100.17 12.05L100.17 12.05Q100.07 12.31 99.87 12.48L99.87 12.48L99.87 12.48Q99.67 12.64 99.38 12.72L99.38 12.72L99.38 12.72Q99.09 12.80 98.72 12.80L98.72 12.80ZM107.56 3.08L110.88 3.08L110.88 3.08Q111.19 3.08 111.47 3.20L111.47 3.20L111.47 3.20Q111.75 3.32 111.95 3.53L111.95 3.53L111.95 3.53Q112.16 3.74 112.28 4.02L112.28 4.02L112.28 4.02Q112.40 4.29 112.40 4.61L112.40 4.61L112.40 5.91L112.01 5.91L112.01 5.91Q111.98 5.41 111.79 4.96L111.79 4.96L111.79 4.96Q111.60 4.50 111.28 4.17L111.28 4.17L111.28 4.17Q110.96 3.83 110.53 3.63L110.53 3.63L110.53 3.63Q110.09 3.42 109.57 3.42L109.57 3.42L109.11 3.42L109.11 3.42Q108.68 3.42 108.38 3.50L108.38 3.50L108.38 3.50Q108.08 3.58 107.90 3.75L107.90 3.75L107.90 3.75Q107.72 3.93 107.64 4.22L107.64 4.22L107.64 4.22Q107.56 4.51 107.56 4.94L107.56 4.94L107.56 10.94L107.56 10.94Q107.56 11.36 107.64 11.66L107.64 11.66L107.64 11.66Q107.72 11.95 107.90 12.13L107.90 12.13L107.90 12.13Q108.08 12.30 108.38 12.38L108.38 12.38L108.38 12.38Q108.68 12.46 109.11 12.46L109.11 12.46L109.57 12.46L109.57 12.46Q110.00 12.46 110.29 12.38L110.29 12.38L110.29 12.38Q110.59 12.30 110.78 12.13L110.78 12.13L110.78 12.13Q110.97 11.95 111.05 11.66L111.05 11.66L111.05 11.66Q111.13 11.36 111.13 10.94L111.13 10.94L111.13 8.69L109.81 8.69L109.81 8.35L111.83 8.35L111.83 8.35Q112.06 8.35 112.22 8.36L112.22 8.36L112.22 8.36Q112.38 8.37 112.47 8.44L112.47 8.44L112.47 8.44Q112.56 8.50 112.60 8.63L112.60 8.63L112.60 8.63Q112.64 8.76 112.64 9.01L112.64 9.01L112.64 11.27L112.64 11.27Q112.64 11.59 112.52 11.86L112.52 11.86L112.52 11.86Q112.40 12.14 112.19 12.35L112.19 12.35L112.19 12.35Q111.99 12.56 111.71 12.68L111.71 12.68L111.71 12.68Q111.43 12.80 111.12 12.80L111.12 12.80L107.56 12.80L107.56 12.80Q107.24 12.80 106.97 12.68L106.97 12.68L106.97 12.68Q106.69 12.56 106.48 12.35L106.48 12.35L106.48 12.35Q106.28 12.14 106.16 11.86L106.16 11.86L106.16 11.86Q106.04 11.59 106.04 11.27L106.04 11.27L106.04 4.61L106.04 4.61Q106.04 4.29 106.14 4.02L106.14 4.02L106.14 4.02Q106.24 3.74 106.44 3.53L106.44 3.53L106.44 3.53Q106.63 3.32 106.91 3.20L106.91 3.20L106.91 3.20Q107.19 3.08 107.56 3.08L107.56 3.08ZM115.51 7.79L118.12 7.79L118.12 7.14L118.12 7.14Q118.12 6.32 117.73 5.97L117.73 5.97L117.73 5.97Q117.34 5.63 116.53 5.63L116.53 5.63L116.53 5.63Q116.12 5.63 115.84 5.70L115.84 5.70L115.84 5.70Q115.55 5.78 115.38 5.96L115.38 5.96L115.38 5.96Q115.20 6.15 115.12 6.43L115.12 6.43L115.12 6.43Q115.04 6.72 115.04 7.14L115.04 7.14L115.04 7.30L114.65 7.30L114.65 6.18L114.65 6.18Q114.65 5.87 114.67 5.69L114.67 5.69L114.67 5.69Q114.69 5.51 114.77 5.42L114.77 5.42L114.77 5.42Q114.85 5.33 115.01 5.31L115.01 5.31L115.01 5.31Q115.17 5.28 115.46 5.28L115.46 5.28L118.12 5.28L118.12 5.28Q118.40 5.28 118.67 5.42L118.67 5.42L118.67 5.42Q118.94 5.55 119.15 5.77L119.15 5.77L119.15 5.77Q119.37 5.98 119.50 6.25L119.50 6.25L119.50 6.25Q119.63 6.53 119.63 6.81L119.63 6.81L119.63 11.27L119.63 11.27Q119.63 11.58 119.51 11.85L119.51 11.85L119.51 11.85Q119.38 12.12 119.17 12.33L119.17 12.33L119.17 12.33Q118.96 12.53 118.69 12.66L118.69 12.66L118.69 12.66Q118.41 12.78 118.12 12.80L118.12 12.80L115.51 12.80L115.51 12.80Q115.20 12.80 114.93 12.68L114.93 12.68L114.93 12.68Q114.65 12.56 114.45 12.36L114.45 12.36L114.45 12.36Q114.24 12.15 114.12 11.87L114.12 11.87L114.12 11.87Q114.00 11.59 114.00 11.27L114.00 11.27L114.00 9.31L114.00 9.31Q114.00 9.00 114.12 8.72L114.12 8.72L114.12 8.72Q114.24 8.44 114.45 8.23L114.45 8.23L114.45 8.23Q114.65 8.03 114.93 7.91L114.93 7.91L114.93 7.91Q115.20 7.79 115.51 7.79L115.51 7.79ZM118.12 10.94L118.12 8.13L117.07 8.13L117.07 8.13Q116.64 8.13 116.34 8.21L116.34 8.21L116.34 8.21Q116.05 8.29 115.86 8.46L115.86 8.46L115.86 8.46Q115.68 8.64 115.60 8.93L115.60 8.93L115.60 8.93Q115.51 9.22 115.51 9.64L115.51 9.64L115.51 10.94L115.51 10.94Q115.51 11.33 115.58 11.60L115.58 11.60L115.58 11.60Q115.65 11.87 115.80 12.06L115.80 12.06L115.80 12.06Q115.95 12.24 116.19 12.33L116.19 12.33L116.19 12.33Q116.44 12.43 116.79 12.46L116.79 12.46L116.79 12.46Q117.15 12.43 117.41 12.34L117.41 12.34L117.41 12.34Q117.66 12.25 117.82 12.07L117.82 12.07L117.82 12.07Q117.98 11.89 118.05 11.61L118.05 11.61L118.05 11.61Q118.12 11.33 118.12 10.94L118.12 10.94ZM129.56 5.27L129.56 5.27L129.56 5.27Q129.87 5.27 130.15 5.39L130.15 5.39L130.15 5.39Q130.43 5.51 130.64 5.72L130.64 5.72L130.64 5.72Q130.85 5.93 130.98 6.21L130.98 6.21L130.98 6.21Q131.11 6.49 131.11 6.80L131.11 6.80L131.11 11.20L131.11 11.20Q131.11 11.65 131.03 11.96L131.03 11.96L131.03 11.96Q130.96 12.26 130.79 12.45L130.79 12.45L130.79 12.45Q130.61 12.64 130.31 12.72L130.31 12.72L130.31 12.72Q130.01 12.80 129.56 12.80L129.56 12.80L129.56 7.13L129.56 7.13Q129.56 6.34 129.26 5.98L129.26 5.98L129.26 5.98Q128.95 5.62 128.29 5.62L128.29 5.62L127.02 5.62L127.02 11.20L127.02 11.20Q127.02 11.56 126.97 11.83L126.97 11.83L126.97 11.83Q126.92 12.09 126.82 12.28L126.82 12.28L126.82 12.28Q126.71 12.47 126.53 12.58L126.53 12.58L126.53 12.58Q126.35 12.70 126.08 12.76L126.08 12.76L126.08 12.76Q125.90 12.79 125.63 12.80L125.63 12.80L125.46 12.80L125.46 7.05L125.46 7.05Q125.45 6.31 125.14 5.96L125.14 5.96L125.14 5.96Q124.83 5.62 124.19 5.62L124.19 5.62L122.92 5.62L122.92 11.20L122.92 11.20Q122.92 11.65 122.85 11.96L122.85 11.96L122.85 11.96Q122.77 12.26 122.59 12.45L122.59 12.45L122.59 12.45Q122.41 12.64 122.11 12.72L122.11 12.72L122.11 12.72Q121.81 12.80 121.36 12.80L121.36 12.80L121.36 5.27L129.56 5.27ZM135.60 5.63L135.60 5.63L135.60 5.63Q134.89 5.63 134.60 5.98L134.60 5.98L134.60 5.98Q134.31 6.34 134.31 7.12L134.31 7.12L134.31 7.77L136.90 7.77L136.90 7.12L136.90 7.12Q136.90 6.73 136.83 6.45L136.83 6.45L136.83 6.45Q136.77 6.17 136.61 5.98L136.61 5.98L136.61 5.98Q136.46 5.80 136.21 5.71L136.21 5.71L136.21 5.71Q135.97 5.63 135.60 5.63ZM138.42 8.11L134.31 8.11L134.31 10.95L134.31 10.95Q134.31 11.38 134.39 11.67L134.39 11.67L134.39 11.67Q134.47 11.96 134.65 12.14L134.65 12.14L134.65 12.14Q134.83 12.32 135.13 12.40L135.13 12.40L135.13 12.40Q135.43 12.48 135.86 12.48L135.86 12.48L135.93 12.48L135.93 12.48Q136.36 12.48 136.66 12.40L136.66 12.40L136.66 12.40Q136.95 12.32 137.14 12.14L137.14 12.14L137.14 12.14Q137.32 11.96 137.40 11.67L137.40 11.67L137.40 11.67Q137.48 11.38 137.48 10.95L137.48 10.95L137.48 10.30L137.87 10.30L137.87 11.29L137.87 11.29Q137.87 11.51 137.82 11.78L137.82 11.78L137.82 11.78Q137.77 12.04 137.61 12.27L137.61 12.27L137.61 12.27Q137.46 12.50 137.16 12.65L137.16 12.65L137.16 12.65Q136.86 12.80 136.35 12.80L136.35 12.80L134.31 12.80L134.31 12.80Q134.03 12.80 133.76 12.67L133.76 12.67L133.76 12.67Q133.49 12.54 133.28 12.33L133.28 12.33L133.28 12.33Q133.06 12.11 132.93 11.84L132.93 11.84L132.93 11.84Q132.79 11.57 132.79 11.29L132.79 11.29L132.79 6.79L132.79 6.79Q132.79 6.49 132.92 6.22L132.92 6.22L132.92 6.22Q133.04 5.95 133.25 5.75L133.25 5.75L133.25 5.75Q133.46 5.54 133.73 5.42L133.73 5.42L133.73 5.42Q134.00 5.29 134.31 5.27L134.31 5.27L136.90 5.27L136.90 5.27Q137.22 5.27 137.49 5.39L137.49 5.39L137.49 5.39Q137.77 5.51 137.98 5.72L137.98 5.72L137.98 5.72Q138.18 5.93 138.30 6.20L138.30 6.20L138.30 6.20Q138.42 6.48 138.42 6.79L138.42 6.79L138.42 8.11ZM145.25 12.80L145.25 12.80L145.25 3.44L144.72 3.44L144.72 3.44Q144.29 3.44 143.99 3.51L143.99 3.51L143.99 3.51Q143.70 3.59 143.51 3.77L143.51 3.77L143.51 3.77Q143.33 3.94 143.25 4.23L143.25 4.23L143.25 4.23Q143.17 4.52 143.17 4.94L143.17 4.94L143.17 5.91L142.78 5.91L142.78 3.98L142.78 3.98Q142.78 3.66 142.79 3.49L142.79 3.49L142.79 3.49Q142.81 3.31 142.88 3.22L142.88 3.22L142.88 3.22Q142.96 3.13 143.12 3.11L143.12 3.11L143.12 3.11Q143.29 3.08 143.58 3.08L143.58 3.08L148.46 3.08L148.46 3.08Q148.76 3.08 148.93 3.11L148.93 3.11L148.93 3.11Q149.10 3.13 149.18 3.22L149.18 3.22L149.18 3.22Q149.26 3.31 149.27 3.49L149.27 3.49L149.27 3.49Q149.29 3.67 149.29 3.98L149.29 3.98L149.29 5.91L148.89 5.91L148.89 4.94L148.89 4.94Q148.89 4.52 148.81 4.23L148.81 4.23L148.81 4.23Q148.73 3.94 148.54 3.77L148.54 3.77L148.54 3.77Q148.36 3.59 148.06 3.51L148.06 3.51L148.06 3.51Q147.77 3.44 147.33 3.44L147.33 3.44L146.79 3.44L146.79 11.17L146.79 11.17Q146.79 11.63 146.72 11.94L146.72 11.94L146.72 11.94Q146.64 12.26 146.45 12.45L146.45 12.45L146.45 12.45Q146.27 12.64 145.97 12.72L145.97 12.72L145.97 12.72Q145.68 12.80 145.25 12.80ZM150.82 5.27L153.11 5.27L153.11 5.27Q153.44 5.27 153.74 5.37L153.74 5.37L153.74 5.37Q154.04 5.48 154.27 5.67L154.27 5.67L154.27 5.67Q154.50 5.87 154.64 6.15L154.64 6.15L154.64 6.15Q154.77 6.44 154.77 6.81L154.77 6.81L154.77 11.27L154.77 11.27Q154.77 11.64 154.64 11.93L154.64 11.93L154.64 11.93Q154.50 12.21 154.27 12.40L154.27 12.40L154.27 12.40Q154.04 12.60 153.74 12.70L153.74 12.70L153.74 12.70Q153.44 12.80 153.11 12.80L153.11 12.80L150.82 12.80L150.82 12.80Q150.49 12.80 150.19 12.70L150.19 12.70L150.19 12.70Q149.89 12.60 149.66 12.40L149.66 12.40L149.66 12.40Q149.43 12.21 149.29 11.93L149.29 11.93L149.29 11.93Q149.15 11.64 149.15 11.27L149.15 11.27L149.15 6.81L149.15 6.81Q149.15 6.44 149.29 6.15L149.29 6.15L149.29 6.15Q149.43 5.87 149.66 5.67L149.66 5.67L149.66 5.67Q149.89 5.48 150.19 5.37L150.19 5.37L150.19 5.37Q150.49 5.27 150.82 5.27L150.82 5.27ZM150.67 7.13L150.67 10.94L150.67 10.94Q150.67 11.33 150.74 11.62L150.74 11.62L150.74 11.62Q150.81 11.91 150.96 12.09L150.96 12.09L150.96 12.09Q151.12 12.28 151.36 12.37L151.36 12.37L151.36 12.37Q151.61 12.46 151.96 12.46L151.96 12.46L151.96 12.46Q152.32 12.46 152.57 12.37L152.57 12.37L152.57 12.37Q152.82 12.28 152.97 12.09L152.97 12.09L152.97 12.09Q153.13 11.91 153.19 11.62L153.19 11.62L153.19 11.62Q153.26 11.33 153.26 10.94L153.26 10.94L153.26 7.13L153.26 7.13Q153.26 6.74 153.19 6.45L153.19 6.45L153.19 6.45Q153.13 6.17 152.97 5.98L152.97 5.98L152.97 5.98Q152.82 5.80 152.57 5.71L152.57 5.71L152.57 5.71Q152.32 5.62 151.96 5.62L151.96 5.62L151.96 5.62Q151.61 5.62 151.36 5.71L151.36 5.71L151.36 5.71Q151.12 5.80 150.96 5.98L150.96 5.98L150.96 5.98Q150.81 6.17 150.74 6.45L150.74 6.45L150.74 6.45Q150.67 6.74 150.67 7.13L150.67 7.13ZM158.17 5.27L160.46 5.27L160.46 5.27Q160.79 5.27 161.09 5.37L161.09 5.37L161.09 5.37Q161.39 5.48 161.62 5.67L161.62 5.67L161.62 5.67Q161.85 5.87 161.98 6.15L161.98 6.15L161.98 6.15Q162.12 6.44 162.12 6.81L162.12 6.81L162.12 11.27L162.12 11.27Q162.12 11.64 161.98 11.93L161.98 11.93L161.98 11.93Q161.85 12.21 161.62 12.40L161.62 12.40L161.62 12.40Q161.39 12.60 161.09 12.70L161.09 12.70L161.09 12.70Q160.79 12.80 160.46 12.80L160.46 12.80L158.17 12.80L158.17 12.80Q157.84 12.80 157.54 12.70L157.54 12.70L157.54 12.70Q157.24 12.60 157.01 12.40L157.01 12.40L157.01 12.40Q156.78 12.21 156.64 11.93L156.64 11.93L156.64 11.93Q156.50 11.64 156.50 11.27L156.50 11.27L156.50 6.81L156.50 6.81Q156.50 6.44 156.64 6.15L156.64 6.15L156.64 6.15Q156.78 5.87 157.01 5.67L157.01 5.67L157.01 5.67Q157.24 5.48 157.54 5.37L157.54 5.37L157.54 5.37Q157.84 5.27 158.17 5.27L158.17 5.27ZM158.02 7.13L158.02 10.94L158.02 10.94Q158.02 11.33 158.09 11.62L158.09 11.62L158.09 11.62Q158.16 11.91 158.31 12.09L158.31 12.09L158.31 12.09Q158.46 12.28 158.71 12.37L158.71 12.37L158.71 12.37Q158.96 12.46 159.31 12.46L159.31 12.46L159.31 12.46Q159.67 12.46 159.92 12.37L159.92 12.37L159.92 12.37Q160.17 12.28 160.32 12.09L160.32 12.09L160.32 12.09Q160.47 11.91 160.54 11.62L160.54 11.62L160.54 11.62Q160.61 11.33 160.61 10.94L160.61 10.94L160.61 7.13L160.61 7.13Q160.61 6.74 160.54 6.45L160.54 6.45L160.54 6.45Q160.47 6.17 160.32 5.98L160.32 5.98L160.32 5.98Q160.17 5.80 159.92 5.71L159.92 5.71L159.92 5.71Q159.67 5.62 159.31 5.62L159.31 5.62L159.31 5.62Q158.96 5.62 158.71 5.71L158.71 5.71L158.71 5.71Q158.46 5.80 158.31 5.98L158.31 5.98L158.31 5.98Q158.16 6.17 158.09 6.45L158.09 6.45L158.09 6.45Q158.02 6.74 158.02 7.13L158.02 7.13ZM165.40 2.94L165.40 2.94L165.40 10.94L165.40 10.94Q165.40 11.22 165.40 11.55L165.40 11.55L165.40 11.55Q165.40 11.87 165.47 12.14L165.47 12.14L165.47 12.14Q165.55 12.41 165.74 12.58L165.74 12.58L165.74 12.58Q165.93 12.76 166.30 12.76L166.30 12.76L166.30 12.76Q166.32 12.76 166.32 12.78L166.32 12.78L166.32 12.78Q166.32 12.80 166.30 12.80L166.30 12.80L165.38 12.80L165.38 12.80Q164.84 12.80 164.54 12.68L164.54 12.68L164.54 12.68Q164.23 12.56 164.08 12.36L164.08 12.36L164.08 12.36Q163.93 12.15 163.89 11.87L163.89 11.87L163.89 11.87Q163.85 11.59 163.85 11.27L163.85 11.27L163.85 4.57L163.85 4.57Q163.85 4.12 163.93 3.80L163.93 3.80L163.93 3.80Q164.01 3.49 164.20 3.29L164.20 3.29L164.20 3.29Q164.38 3.10 164.67 3.02L164.67 3.02L164.67 3.02Q164.96 2.94 165.40 2.94ZM168.86 5.27L168.86 5.27L171.28 5.27L171.28 5.27Q171.79 5.27 172.06 5.42L172.06 5.42L172.06 5.42Q172.34 5.58 172.47 5.81L172.47 5.81L172.47 5.81Q172.60 6.04 172.62 6.30L172.62 6.30L172.62 6.30Q172.65 6.56 172.65 6.79L172.65 6.79L172.65 7.29L172.23 7.29L172.23 7.29Q172.18 6.92 172.03 6.62L172.03 6.62L172.03 6.62Q171.88 6.31 171.65 6.09L171.65 6.09L171.65 6.09Q171.41 5.87 171.09 5.74L171.09 5.74L171.09 5.74Q170.78 5.61 170.39 5.61L170.39 5.61L170.00 5.61L170.00 5.61Q169.57 5.61 169.29 5.68L169.29 5.68L169.29 5.68Q169.01 5.75 168.84 5.91L168.84 5.91L168.84 5.91Q168.68 6.06 168.60 6.32L168.60 6.32L168.60 6.32Q168.53 6.58 168.53 6.96L168.53 6.96L168.53 6.96Q168.53 7.25 168.70 7.46L168.70 7.46L168.70 7.46Q168.87 7.67 169.15 7.83L169.15 7.83L169.15 7.83Q169.43 7.99 169.79 8.11L169.79 8.11L169.79 8.11Q170.15 8.24 170.53 8.34L170.53 8.34L170.53 8.34Q170.91 8.44 171.27 8.54L171.27 8.54L171.27 8.54Q171.64 8.64 171.95 8.76L171.95 8.76L171.95 8.76Q172.17 8.84 172.36 8.98L172.36 8.98L172.36 8.98Q172.55 9.12 172.68 9.31L172.68 9.31L172.68 9.31Q172.82 9.50 172.90 9.72L172.90 9.72L172.90 9.72Q172.98 9.95 172.98 10.19L172.98 10.19L172.98 11.28L172.98 11.28Q172.98 11.59 172.86 11.87L172.86 11.87L172.86 11.87Q172.74 12.15 172.53 12.36L172.53 12.36L172.53 12.36Q172.32 12.56 172.04 12.68L172.04 12.68L172.04 12.68Q171.76 12.80 171.45 12.80L171.45 12.80L169.28 12.80L169.28 12.80Q168.77 12.80 168.40 12.71L168.40 12.71L168.40 12.71Q168.03 12.61 167.79 12.39L167.79 12.39L167.79 12.39Q167.56 12.17 167.45 11.82L167.45 11.82L167.45 11.82Q167.34 11.46 167.34 10.95L167.34 10.95L167.34 10.29L167.73 10.29L167.73 10.95L167.73 10.95Q167.73 11.38 167.82 11.67L167.82 11.67L167.82 11.67Q167.90 11.96 168.08 12.13L168.08 12.13L168.08 12.13Q168.26 12.31 168.55 12.39L168.55 12.39L168.55 12.39Q168.85 12.46 169.28 12.46L169.28 12.46L170.23 12.46L170.23 12.46Q170.66 12.46 170.95 12.41L170.95 12.41L170.95 12.41Q171.25 12.36 171.43 12.21L171.43 12.21L171.43 12.21Q171.61 12.06 171.69 11.80L171.69 11.80L171.69 11.80Q171.77 11.54 171.77 11.12L171.77 11.12L171.77 10.94L171.77 10.94Q171.77 10.60 171.58 10.39L171.58 10.39L171.58 10.39Q171.38 10.17 171.07 10.02L171.07 10.02L171.07 10.02Q170.76 9.88 170.37 9.78L170.37 9.78L170.37 9.78Q169.97 9.68 169.56 9.57L169.56 9.57L169.56 9.57Q169.14 9.45 168.75 9.31L168.75 9.31L168.75 9.31Q168.35 9.17 168.04 8.93L168.04 8.93L168.04 8.93Q167.73 8.70 167.54 8.35L167.54 8.35L167.54 8.35Q167.34 8.00 167.34 7.49L167.34 7.49L167.34 6.79L167.34 6.79Q167.34 6.47 167.46 6.20L167.46 6.20L167.46 6.20Q167.58 5.92 167.79 5.71L167.79 5.71L167.79 5.71Q167.99 5.51 168.27 5.39L168.27 5.39L168.27 5.39Q168.55 5.27 168.86 5.27Z"></path></g><!----><!----></svg>